<?xml version="1.0" encoding="UTF-8"?>
<!DOCTYPE svg PUBLIC "-//W3C//DTD SVG 1.1//EN" "http://www.w3.org/Graphics/SVG/1.1/DTD/svg11.dtd">
<!-- Creator: CorelDRAW 2021 (64-Bit) -->
<svg xmlns="http://www.w3.org/2000/svg" xml:space="preserve" width="5.5034mm" height="5.5035mm" version="1.1" shape-rendering="geometricPrecision" text-rendering="geometricPrecision" image-rendering="optimizeQuality" fill-rule="evenodd" clip-rule="evenodd"
viewBox="0 0 597.9 597.91"
 xmlns:xlink="http://www.w3.org/1999/xlink"
 xmlns:xodm="http://www.corel.com/coreldraw/odm/2003">
 <g id="Katman_x0020_1">
  <metadata id="CorelCorpID_0Corel-Layer"/>
  <path fill="#DD2A1B" d="M13.98 14.03c18.69,-18.69 49.19,-18.69 67.88,0l217.07 217.07 217.11 -217.1c18.65,-18.65 49.16,-18.65 67.81,0 18.65,18.65 18.72,49.16 0.03,67.85l-217.1 217.11 217.1 217.1c18.65,18.65 18.69,49.19 0.03,67.85 -18.69,18.69 -49.19,18.69 -67.88,0l-217.11 -217.1 -217.07 217.07c-18.65,18.65 -49.19,18.69 -67.88,0 -18.65,-18.65 -18.62,-49.19 0.03,-67.85l217.07 -217.07 -217.07 -217.08c-18.65,-18.65 -18.69,-49.19 -0.03,-67.85z"/>
 </g>
</svg>
