<?xml version="1.0" encoding="UTF-8"?>
<!DOCTYPE svg PUBLIC "-//W3C//DTD SVG 1.1//EN" "http://www.w3.org/Graphics/SVG/1.1/DTD/svg11.dtd">
<!-- Creator: CorelDRAW 2021 (64-Bit) -->
<svg xmlns="http://www.w3.org/2000/svg" xml:space="preserve" width="7.7294mm" height="6.0428mm" version="1.1" shape-rendering="geometricPrecision" text-rendering="geometricPrecision" image-rendering="optimizeQuality" fill-rule="evenodd" clip-rule="evenodd"
viewBox="0 0 775.69 606.43"
 xmlns:xlink="http://www.w3.org/1999/xlink"
 xmlns:xodm="http://www.corel.com/coreldraw/odm/2003">
 <g id="Katman_x0020_1">
  <metadata id="CorelCorpID_0Corel-Layer"/>
  <g id="_2508777053232">
   <path fill="#3C465A" fill-rule="nonzero" d="M194.14 140.71c-22.55,-22.58 -61.39,-6.42 -61.39,25.45 0,31.83 38.87,48.09 61.39,25.46 14.01,-13.95 13.96,-36.95 0,-50.91zm502.59 -118.37l-0.03 224.72c-0.33,12.16 -10.69,21.79 -22.66,21.66 -11.91,-0.13 -21.96,-10.06 -21.96,-22.09l0 -201.98 -607.43 0 0 406.75 165.85 -165.85c8.72,-8.68 22.85,-8.71 31.56,0l108.28 108.26c20.7,20.85 -10.86,52.35 -31.61,31.59l-92.44 -92.47 -150.06 150.06 339.84 0.01c13.38,0 22.05,11.01 22.18,22.28 0.12,11.06 -9.17,22.29 -22.29,22.29l-393.66 0.06c-12.32,0 -22.31,-10 -22.31,-22.32l0 -482.98c0,-12.31 10,-22.34 22.31,-22.34l652.07 0c12.3,0 22.37,10.03 22.35,22.34zm-174.63 272.5l-95.95 -94.78 -69.16 69.15c-20.72,20.68 -52.22,-10.81 -31.51,-31.61l84.9 -84.87c8.71,-8.75 22.85,-8.7 31.58,-0.01l112.19 110.75c8.78,9.91 6.87,23.47 -0.61,30.82 -8.59,8.44 -22.05,9.11 -31.44,0.55zm-408.58 -73.49c-48.98,-48.98 -14,-133.26 55.18,-133.26 69.19,0 104.2,84.26 55.18,133.24 -30.34,30.36 -80,30.39 -110.35,0.02z"/>
   <path fill="#00D2C8" d="M629.32 313.5c6.06,0 11.95,2.45 16.23,6.74 4.13,4.13 6.72,9.89 6.72,16.19l0 100.55 100.49 0c6.09,0 11.87,2.44 16.19,6.72 4.3,4.29 6.74,10.12 6.74,16.19 0,6.06 -2.44,11.94 -6.73,16.23 -4.3,4.3 -10.11,6.73 -16.2,6.73l-100.49 0 0 100.65c0,3.09 -0.62,6.05 -1.74,8.74 -2.35,5.62 -6.81,10.11 -12.44,12.44 -2.7,1.12 -5.66,1.75 -8.73,1.75 -3.1,0 -6.06,-0.62 -8.76,-1.75 -5.63,-2.33 -10.11,-6.81 -12.44,-12.43 -1.12,-2.7 -1.75,-5.66 -1.75,-8.75l0 -100.65 -100.48 0c-6.07,0 -11.88,-2.43 -16.19,-6.72 -4.3,-4.6 -6.73,-9.82 -6.73,-16.2 0,-6.08 2.44,-11.94 6.73,-16.23 4.13,-4.13 9.89,-6.72 16.19,-6.72l100.48 0 0 -100.55c0,-6.05 2.44,-11.9 6.71,-16.19 4.29,-4.28 10.14,-6.74 16.2,-6.74z"/>
  </g>
 </g>
</svg>
