<?xml version="1.0" encoding="UTF-8"?>
<!DOCTYPE svg PUBLIC "-//W3C//DTD SVG 1.1//EN" "http://www.w3.org/Graphics/SVG/1.1/DTD/svg11.dtd">
<!-- Creator: CorelDRAW 2021 (64-Bit) -->
<svg xmlns="http://www.w3.org/2000/svg" xml:space="preserve" width="5.334mm" height="6.819mm" version="1.1" shape-rendering="geometricPrecision" text-rendering="geometricPrecision" image-rendering="optimizeQuality" fill-rule="evenodd" clip-rule="evenodd"
viewBox="0 0 6.95 8.88"
 xmlns:xlink="http://www.w3.org/1999/xlink"
 xmlns:xodm="http://www.corel.com/coreldraw/odm/2003">
 <g id="Katman_x0020_1">
  <metadata id="CorelCorpID_0Corel-Layer"/>
  <path fill="#196E64" fill-rule="nonzero" d="M2.15 6.95l0 -1.85 -1.56 -0c-0.22,-0 -0.41,-0.11 -0.52,-0.3 -0.11,-0.18 -0.09,-0.44 0.03,-0.61 0.23,-0.39 0.5,-0.71 0.78,-0.96 0.28,-0.25 0.57,-0.44 0.87,-0.59l0.03 -1.02c-0.1,-0.05 -0.18,-0.13 -0.24,-0.23 -0.07,-0.11 -0.1,-0.23 -0.1,-0.36l0 -0.34c0,-0.18 0.07,-0.35 0.2,-0.48 0.13,-0.13 0.3,-0.2 0.48,-0.2l2.71 0c0.18,0 0.35,0.07 0.48,0.2 0.13,0.13 0.2,0.3 0.2,0.48l0 0.34c0,0.13 -0.04,0.25 -0.1,0.36 -0.06,0.09 -0.14,0.17 -0.24,0.23l0.03 1.02c0.36,0.17 0.68,0.4 0.95,0.66 0.32,0.3 0.57,0.64 0.73,0.94 0.08,0.17 0.09,0.3 0.04,0.48 -0.08,0.23 -0.3,0.39 -0.54,0.39l-1.58 0 -0 0.76c-0.01,0.16 -0.13,0.28 -0.29,0.27 -0.15,-0.01 -0.28,-0.12 -0.28,-0.28l0 -0.75 -1.49 0 -0 1.86c-0.01,0.21 0.12,0.36 0.26,0.52 0.1,0.12 0.21,0.25 0.28,0.41 0.05,0.13 0.1,0.22 0.15,0.26 0.05,0.05 0.09,0.05 0.13,-0 0.05,-0.05 0.09,-0.14 0.13,-0.27 0.07,-0.19 0.19,-0.32 0.31,-0.45 0.13,-0.14 0.24,-0.26 0.24,-0.43l0 -0.19c0.01,-0.16 0.12,-0.28 0.28,-0.28 0.16,0 0.28,0.12 0.29,0.29l0 0.14c0,0.23 -0.04,0.43 -0.18,0.62 -0.12,0.15 -0.25,0.27 -0.36,0.43 -0.08,0.12 -0.14,0.25 -0.21,0.43 -0.05,0.13 -0.13,0.25 -0.24,0.34 -0.09,0.07 -0.2,0.11 -0.31,0.11 -0.11,0 -0.21,-0.03 -0.31,-0.1 -0.12,-0.09 -0.18,-0.19 -0.24,-0.33 -0.12,-0.24 -0.18,-0.37 -0.26,-0.48 -0.08,-0.11 -0.17,-0.21 -0.35,-0.39 -0.14,-0.18 -0.18,-0.41 -0.18,-0.63zm-0.04 -6.37c-0.05,0 -0.1,0.03 -0.1,0.09l0 0.36c0,0.05 0.03,0.09 0.09,0.09l2.73 0c0.05,0 0.09,-0.04 0.09,-0.08l0 -0.38c0,-0.05 -0.04,-0.09 -0.09,-0.09l-2.72 0zm2.48 1.12l-2.24 0 -0.02 0.92 2.29 0 -0.03 -0.92zm-3.86 2.83l5.48 -0c0.07,-0 0.12,-0.08 0.08,-0.15 -0.12,-0.21 -0.26,-0.38 -0.43,-0.55 -0.13,-0.14 -0.3,-0.28 -0.45,-0.39 -0.17,-0.14 -0.37,-0.25 -0.59,-0.25l-2.67 0c-0.27,-0 -0.55,0.2 -0.64,0.26 -0.17,0.12 -0.34,0.27 -0.47,0.42 -0.14,0.15 -0.27,0.32 -0.39,0.51 -0.04,0.06 0.01,0.15 0.08,0.15z"/>
 </g>
</svg>
