<?xml version="1.0" encoding="UTF-8"?>
<!DOCTYPE svg PUBLIC "-//W3C//DTD SVG 1.1//EN" "http://www.w3.org/Graphics/SVG/1.1/DTD/svg11.dtd">
<!-- Creator: CorelDRAW 2021 (64-Bit) -->
<svg xmlns="http://www.w3.org/2000/svg" xml:space="preserve" width="5.9672mm" height="6.6617mm" version="1.1" shape-rendering="geometricPrecision" text-rendering="geometricPrecision" image-rendering="optimizeQuality" fill-rule="evenodd" clip-rule="evenodd"
viewBox="0 0 541.97 605.05"
 xmlns:xlink="http://www.w3.org/1999/xlink"
 xmlns:xodm="http://www.corel.com/coreldraw/odm/2003">
 <g id="Katman_x0020_1">
  <metadata id="CorelCorpID_0Corel-Layer"/>
  <g id="_2121804732176">
   <path fill="#196E64" fill-rule="nonzero" d="M535.05 133.51l-63.51 -63.5c-9.23,-9.23 -24.19,-9.23 -33.42,0 -9.23,9.23 -9.23,24.2 0,33.42l15.04 15.04 -30.84 30.84c-40.15,-33.5 -88.97,-53.71 -141.05,-58.43l0 -43.62 21.27 0c13.05,0 23.63,-10.58 23.63,-23.63 0,-13.05 -10.58,-23.63 -23.63,-23.63l-89.82 0c-13.05,0 -23.63,10.58 -23.63,23.63 0,13.06 10.58,23.64 23.63,23.64l21.28 -0.01 0 43.62c-129.67,11.72 -233.99,120.61 -233.99,256.54 0,142.38 115.22,257.62 257.63,257.62 142.38,0 257.62,-115.22 257.62,-257.62 0,-60.87 -20.98,-118.52 -59.51,-164.69l30.85 -30.84 15.04 15.04c9.23,9.23 24.19,9.23 33.42,0 9.23,-9.23 9.23,-24.2 0,-33.42l0 0zm-277.42 424.27c-115.99,0 -210.35,-94.37 -210.35,-210.35 0,-115.99 94.36,-210.35 210.35,-210.35 115.98,0 210.34,94.36 210.34,210.35 0,115.98 -94.36,210.35 -210.34,210.35zm122.8 -210.35c0,13.05 -10.58,23.63 -23.63,23.63l-99.17 0c-13.05,0 -23.63,-10.58 -23.63,-23.63l0 -139.06c0,-13.05 10.58,-23.63 23.63,-23.63 13.05,0 23.63,10.58 23.63,23.63l0 115.42 75.54 0c13.05,0 23.63,10.59 23.63,23.64l0 0z"/>
  </g>
 </g>
</svg>
