<svg width="19" height="19" viewBox="0 0 19 19" fill="none" xmlns="http://www.w3.org/2000/svg">
<g clip-path="url(#clip0_1_14)">
<path d="M7.40967 3.58325C7.78947 3.5834 8.12682 3.7884 8.30029 4.1272L13.6353 15.0461C13.7856 15.3555 13.765 15.7197 13.5854 16.0129C13.3983 16.3186 13.0766 16.4904 12.7202 16.4905H10.9868C10.733 16.4905 10.5106 16.4453 10.2983 16.3C10.0968 16.1622 9.9704 15.9711 9.86279 15.7561L9.39307 14.7776H5.41748L4.95361 15.761C4.85451 15.9804 4.69465 16.1695 4.49072 16.2981C4.2836 16.4292 4.04949 16.4905 3.80518 16.4905H2.07568C1.72371 16.4905 1.41314 16.3049 1.22998 16.0061C1.05558 15.7213 1.01911 15.3636 1.1665 15.0598L6.50928 4.12329C6.68687 3.78559 7.02954 3.58325 7.40967 3.58325ZM17.562 3.64868L17.5601 4.68872H16.3208L16.3237 15.3899H17.564L17.5649 16.4241H14.1206L14.1196 15.3899H15.3403L15.3374 4.68872H14.1167L14.1177 3.64868H17.562ZM7.52197 4.72485C7.46727 4.63316 7.33975 4.63287 7.28662 4.72681L2.11084 15.3284C2.07479 15.4197 2.13193 15.5191 2.229 15.5178H3.80029C3.92936 15.5185 4.03203 15.4485 4.09033 15.3352L4.8042 13.8137C6.53258 13.8137 8.26812 13.7992 9.99561 13.8147L10.7388 15.342C10.804 15.4545 10.8879 15.5129 11.021 15.5188H12.5718C12.6699 15.5187 12.738 15.4112 12.6938 15.3303L7.52197 4.72485ZM7.39502 8.40259C7.56921 8.40259 7.71897 8.50696 7.78174 8.67017L9.55029 12.3264C8.12154 12.3264 6.69096 12.3222 5.26221 12.3274L7.0083 8.67993C7.07028 8.51458 7.2177 8.40264 7.39502 8.40259ZM6.80322 11.3567L8.00049 11.3547L7.39404 10.1106L6.80322 11.3567Z" fill="#196E64"/>
<path d="M7.40967 3.58325C7.78947 3.5834 8.12682 3.7884 8.30029 4.1272L13.6353 15.0461C13.7856 15.3555 13.765 15.7197 13.5854 16.0129C13.3983 16.3186 13.0766 16.4904 12.7202 16.4905H10.9868C10.733 16.4905 10.5106 16.4453 10.2983 16.3C10.0968 16.1622 9.9704 15.9711 9.86279 15.7561L9.39307 14.7776H5.41748L4.95361 15.761C4.85451 15.9804 4.69465 16.1695 4.49072 16.2981C4.2836 16.4292 4.04949 16.4905 3.80518 16.4905H2.07568C1.72371 16.4905 1.41314 16.3049 1.22998 16.0061C1.05558 15.7213 1.01911 15.3636 1.1665 15.0598L6.50928 4.12329C6.68687 3.78559 7.02954 3.58325 7.40967 3.58325ZM17.562 3.64868L17.5601 4.68872H16.3208L16.3237 15.3899H17.564L17.5649 16.4241H14.1206L14.1196 15.3899H15.3403L15.3374 4.68872H14.1167L14.1177 3.64868H17.562ZM7.52197 4.72485C7.46727 4.63316 7.33975 4.63287 7.28662 4.72681L2.11084 15.3284C2.07479 15.4197 2.13193 15.5191 2.229 15.5178H3.80029C3.92936 15.5185 4.03203 15.4485 4.09033 15.3352L4.8042 13.8137C6.53258 13.8137 8.26812 13.7992 9.99561 13.8147L10.7388 15.342C10.804 15.4545 10.8879 15.5129 11.021 15.5188H12.5718C12.6699 15.5187 12.738 15.4112 12.6938 15.3303L7.52197 4.72485ZM7.39502 8.40259C7.56921 8.40259 7.71897 8.50696 7.78174 8.67017L9.55029 12.3264C8.12154 12.3264 6.69096 12.3222 5.26221 12.3274L7.0083 8.67993C7.07028 8.51458 7.2177 8.40264 7.39502 8.40259ZM6.80322 11.3567L8.00049 11.3547L7.39404 10.1106L6.80322 11.3567Z" stroke="#196E64"/>
</g>
<defs>
<clipPath id="clip0_1_14">
<rect width="19" height="19" fill="white"/>
</clipPath>
</defs>
</svg>
