<svg width="25" height="20" viewBox="0 0 25 20" fill="none" xmlns="http://www.w3.org/2000/svg">
<g clip-path="url(#clip0_1_22)">
<path d="M14.651 18.221C14.7499 18.3953 14.8775 18.4865 15.0792 18.4953L17.4297 18.495C17.5784 18.495 17.6816 18.3287 17.6146 18.2031L9.77451 1.7686C9.69174 1.6265 9.49718 1.62577 9.41657 1.77153L1.57041 18.2001C1.51559 18.3419 1.60265 18.4961 1.75028 18.4939L4.13264 18.4935C4.32828 18.4946 4.48414 18.3862 4.57228 18.2104L5.65401 15.853C8.27429 15.853 10.9053 15.8296 13.5245 15.8538L14.6507 18.2214L14.651 18.221ZM24.9928 1.7133L24.9949 0.102297H19.773L19.7716 1.7133H21.6222L21.6276 18.2946H19.7766L19.7787 19.8979H25L24.9978 18.2946H23.1181L23.1131 1.7133H24.9928ZM4.13981 20.0005H1.51738C0.983862 20.0005 0.513766 19.7134 0.23608 19.2505C-0.0287072 18.8088 -0.0846028 18.2543 0.139338 17.7834L8.23882 0.837667C8.50791 0.314339 9.02709 0.000488281 9.6036 0.000488281C10.1798 0.000488281 10.6918 0.318001 10.9551 0.84316L19.0424 17.7621C19.2703 18.2415 19.2384 18.8055 18.9665 19.2596C18.6827 19.7335 18.1957 20.0001 17.6551 20.0001H15.0273C14.6424 20.0001 14.306 19.9294 13.9842 19.7046C13.6786 19.4911 13.4862 19.1955 13.3232 18.8626L12.6123 17.3461H6.58452L5.88081 18.8692C5.73068 19.2094 5.48883 19.5024 5.17961 19.702C4.86574 19.9053 4.51101 20.0005 4.14053 20.0005H4.13981ZM8.99484 7.89875C9.08872 7.64203 9.31266 7.46808 9.58174 7.46808C9.84582 7.46808 10.0726 7.62995 10.1676 7.883L12.8484 13.5484C10.6825 13.5484 8.51471 13.5415 6.34876 13.5495L8.99484 7.89912V7.89875ZM9.57959 10.1144L8.68419 12.0455L10.5001 12.0429L9.57959 10.1144Z" fill="#3C465A"/>
</g>
<defs>
<clipPath id="clip0_1_22">
<rect width="25" height="20" fill="white"/>
</clipPath>
</defs>
</svg>
