<svg width="64" height="24" viewBox="0 0 64 24" fill="none" xmlns="http://www.w3.org/2000/svg">
<g clip-path="url(#clip0_1_7)">
<path d="M6.88169 0L52.369 0.0125639C54.3311 0.14628 56 1.8101 56 3.88224L55.019 19.1061C54.8784 21.2428 53.2616 23 51.1485 23H7.89049C5.77313 23 4.16407 21.2446 4.02095 19.1061L3 3.87506C3 1.62164 4.79035 0.104998 6.88169 0ZM50.9811 3.51071L7.85493 3.51251C6.79234 3.51251 6.42369 4.40993 6.47574 5.08389L7.37178 18.3837C7.37178 18.8144 7.87314 19.4848 8.57835 19.4848H50.6567C51.4539 19.4848 51.6456 18.748 51.6629 18.4698L52.5381 4.99235C52.598 4.30941 52.323 3.51161 50.9803 3.51161L50.9811 3.51071Z" fill="#196E64"/>
</g>
<defs>
<clipPath id="clip0_1_7">
<rect width="53" height="23" fill="white" transform="translate(3)"/>
</clipPath>
</defs>
</svg>
