<svg width="191" height="210" viewBox="0 0 191 210" fill="none" xmlns="http://www.w3.org/2000/svg">
<mask id="path-1-inside-1_2_110" fill="white">
<path d="M10 30C10 24.4772 14.4772 20 20 20H78C83.5229 20 88 24.4772 88 30V110H10V30Z"/>
</mask>
<path d="M10 30C10 24.4772 14.4772 20 20 20H78C83.5229 20 88 24.4772 88 30V110H10V30Z" fill="#EFEFF9"/>
<path d="M9 30C9 23.9249 13.9249 19 20 19H78C84.0751 19 89 23.9249 89 30H87C87 25.0294 82.9706 21 78 21H20C15.0294 21 11 25.0294 11 30H9ZM89 110.5H9L11 109.5H87L89 110.5ZM9 110.5V30C9 23.9249 13.9249 19 20 19V21C15.0294 21 11 25.0294 11 30V109.5L9 110.5ZM78 19C84.0751 19 89 23.9249 89 30V110.5L87 109.5V30C87 25.0294 82.9706 21 78 21V19Z" fill="#52596C" mask="url(#path-1-inside-1_2_110)"/>
<path d="M49 48V72M60 59.0769H38" stroke="#3B4458" stroke-width="4" stroke-linecap="round"/>
<mask id="path-4-inside-2_2_110" fill="white">
<path d="M10 103H88V180C88 185.523 83.5229 190 78 190H20C14.4772 190 10 185.523 10 180V103Z"/>
</mask>
<path d="M10 103H88V180C88 185.523 83.5229 190 78 190H20C14.4772 190 10 185.523 10 180V103Z" fill="#EFEFF9"/>
<path d="M9 102.5H89L87 103.5H11L9 102.5ZM89 180C89 186.075 84.0751 191 78 191H20C13.9249 191 9 186.075 9 180H11C11 184.971 15.0294 189 20 189H78C82.9706 189 87 184.971 87 180H89ZM20 191C13.9249 191 9 186.075 9 180V102.5L11 103.5V180C11 184.971 15.0294 189 20 189V191ZM89 102.5V180C89 186.075 84.0751 191 78 191V189C82.9706 189 87 184.971 87 180V103.5L89 102.5Z" fill="#52596C" mask="url(#path-4-inside-2_2_110)"/>
<line x1="59" y1="149" x2="38" y2="149" stroke="#3B4458" stroke-width="4" stroke-linecap="round"/>
<rect x="103.5" y="113" width="77" height="76.5" rx="9.5" fill="#F4F4F4"/>
<rect x="103.5" y="113" width="77" height="76.5" rx="9.5" stroke="#52596C"/>
<path d="M134.5 138.75C134.095 138.75 133.69 138.847 133.321 139.045C132.508 139.48 132 140.327 132 141.25V161.251C132 162.174 132.508 163.021 133.321 163.456C134.131 163.888 135.12 163.842 135.887 163.331L150.887 153.331C151.583 152.867 152 152.086 152 151.251C152 150.416 151.582 149.634 150.887 149.171L135.887 139.17C135.469 138.892 134.986 138.751 134.5 138.751V138.75Z" fill="#3C465A"/>
<rect x="103.5" y="20.5" width="77" height="76.5" rx="9.5" fill="#F4F4F4"/>
<rect x="103.5" y="20.5" width="77" height="76.5" rx="9.5" stroke="#52596C"/>
<path d="M157 44.75L128.28 72.75M127 44.75L155.72 72.75" stroke="#FE8080" stroke-width="2.5" stroke-linecap="round"/>
</svg>
