<svg width="23" height="27" viewBox="0 0 23 27" fill="none" xmlns="http://www.w3.org/2000/svg">
<g clip-path="url(#clip0_1_28)">
<path d="M15.2015 3.49251H19.9989C21.6523 3.49736 23.0003 4.72663 23.0003 6.24535V24.2472C23.0003 25.7677 21.655 26.9958 19.9989 26.9988L3.00009 26.9997C1.34207 27 0.00264121 25.7659 0.000990454 24.2472L0 6.24535C0.00297136 4.72814 1.34372 3.49251 3.00009 3.49251H7.81667L7.817 0.815374C7.82624 0.365753 8.22473 0 8.71732 0H14.3022C14.7977 0 15.1995 0.369689 15.2005 0.824155L15.2015 3.49251ZM17.0665 20.144H5.93249C5.27219 20.144 4.73932 19.6895 4.738 19.1327C4.738 18.7318 4.82549 18.3176 4.90869 17.9346C5.55645 15.3386 8.29572 13.191 11.4995 13.224C14.804 13.1689 17.4713 15.4524 18.1009 17.9346C18.1851 18.3185 18.262 18.7318 18.262 19.1324C18.257 19.6895 17.7281 20.144 17.0665 20.144ZM7.22867 18.2746H15.7812C15.9255 18.2746 16.0338 18.1508 15.9836 18.0142C15.4045 16.4452 13.6329 15.0906 11.5048 15.107C9.3172 15.0964 7.61626 16.4555 7.02133 18.0197C6.98501 18.116 7.05104 18.2746 7.22834 18.2746H7.22867ZM11.2469 21.8543H17.2507C17.7579 21.8543 18.2092 22.257 18.2026 22.7502C18.2042 23.2928 17.7113 23.6577 17.2484 23.6577L11.2469 23.6586C10.7818 23.6604 10.2793 23.3064 10.2793 22.7563C10.2793 22.2419 10.7306 21.8546 11.2469 21.8546V21.8543ZM5.76411 21.8543H7.15372C7.66083 21.8543 8.11215 22.257 8.10555 22.7502C8.1072 23.2928 7.61461 23.6577 7.15174 23.6577L5.76411 23.6586C5.29959 23.6604 4.79644 23.3064 4.79644 22.7563C4.79644 22.2419 5.24809 21.8546 5.76411 21.8546V21.8543ZM11.5058 12.8773C9.62854 12.8773 8.10753 11.4822 8.1006 9.76209C8.09927 8.03869 9.62061 6.64077 11.5005 6.63987C13.3774 6.63865 14.902 8.03172 14.9037 9.75391C14.9057 11.4761 13.3857 12.8773 11.5061 12.8773H11.5058ZM11.5058 8.35236C10.6563 8.35236 9.96892 8.98274 9.96892 9.76148C9.96892 10.5399 10.6556 11.1715 11.5058 11.1715C12.3553 11.1715 13.0423 10.5399 13.0423 9.76148C13.0423 8.98304 12.3549 8.35236 11.5058 8.35236ZM13.3985 1.65558H9.6249V3.4798H13.3985V1.65558ZM21.2027 24.2472L21.2023 6.24535C21.2013 5.64131 20.6582 5.14204 19.9989 5.14204H3.00009C2.3411 5.14294 1.79668 5.64101 1.79668 6.24535L1.79701 24.2472C1.79734 24.853 2.33945 25.3508 3.00009 25.3508H19.9989C20.6576 25.3499 21.203 24.8515 21.203 24.2472H21.2027Z" fill="#3C465A"/>
</g>
<defs>
<clipPath id="clip0_1_28">
<rect width="23" height="27" fill="white"/>
</clipPath>
</defs>
</svg>
