<svg width="24" height="27" viewBox="0 0 24 27" fill="none" xmlns="http://www.w3.org/2000/svg">
<g clip-path="url(#clip0_1_31)">
<path d="M23.6935 5.95808L20.8808 3.12439C20.472 2.71243 19.8098 2.71243 19.4006 3.12439C18.9918 3.53636 18.9918 4.20402 19.4006 4.61598L20.0666 5.28703L18.7007 6.66339C16.9227 5.16879 14.761 4.26653 12.4546 4.05603V2.10954H13.3966C13.9747 2.10954 14.4433 1.63732 14.4433 1.05477C14.4433 0.472218 13.9747 0 13.3966 0H9.4195C8.84141 0 8.3728 0.472218 8.3728 1.05477C8.3728 1.6377 8.84141 2.10992 9.4195 2.10992L10.3619 2.10954V4.05603C4.61988 4.5787 0 9.43795 0 15.5041C0 21.8576 5.10231 27 11.4083 27C17.7131 27 22.8161 21.8583 22.8161 15.5041C22.8161 12.7879 21.8871 10.2152 20.1809 8.15498L21.5471 6.77862L22.213 7.44967C22.6218 7.86163 23.284 7.86163 23.6932 7.44967C24.102 7.0377 24.102 6.37004 23.6932 5.95808H23.6935ZM11.4086 24.8908C6.27232 24.8908 2.09376 20.6797 2.09376 15.5041C2.09376 10.3282 6.27232 6.11736 11.4086 6.11736C16.5446 6.11736 20.7231 10.3282 20.7231 15.5041C20.7231 20.6797 16.5446 24.8908 11.4086 24.8908ZM16.8469 15.5041C16.8469 16.0867 16.3783 16.5589 15.8002 16.5589H11.4086C10.8305 16.5589 10.3619 16.0867 10.3619 15.5041V9.29862C10.3619 8.71607 10.8305 8.24385 11.4086 8.24385C11.9867 8.24385 12.4553 8.71607 12.4553 9.29862V14.4493H15.8006C16.3786 14.4493 16.8472 14.9219 16.8472 15.5045L16.8469 15.5041Z" fill="#3C465A"/>
</g>
<defs>
<clipPath id="clip0_1_31">
<rect width="24" height="27" fill="white"/>
</clipPath>
</defs>
</svg>
